<?xml version="1.0" encoding="UTF-8" standalone="no"?>
<!DOCTYPE svg PUBLIC "-//W3C//DTD SVG 1.1//EN"
 "http://www.w3.org/Graphics/SVG/1.1/DTD/svg11.dtd">
<!-- Generated by graphviz version 7.0.6 (20230106.0513)
 -->
<!-- Title: g Pages: 1 -->
<svg width="800pt" height="218pt"
 viewBox="0.00 0.00 799.50 218.00" xmlns="http://www.w3.org/2000/svg" xmlns:xlink="http://www.w3.org/1999/xlink">
<g id="graph0" class="graph" transform="scale(1 1) rotate(0) translate(4 214)">
<title>g</title>
<polygon fill="white" stroke="none" points="-4,4 -4,-214 795.5,-214 795.5,4 -4,4"/>
<!-- file -->
<g id="node1" class="node">
<title>file</title>
<polygon fill="none" stroke="black" points="610.5,-210 272.5,-210 272.5,-174 610.5,-174 610.5,-210"/>
<text text-anchor="middle" x="441.5" y="-188.3" font-family="Times,serif" font-size="14.00">info:submissions/002d6280&#45;f6c4&#45;11ec&#45;9646&#45;0b4ee566f41d</text>
</g>
<!-- topicScore -->
<g id="node2" class="node">
<title>topicScore</title>
<polygon fill="none" stroke="black" points="522.5,-123 108.5,-123 108.5,-87 522.5,-87 522.5,-123"/>
<text text-anchor="middle" x="315.5" y="-101.3" font-family="Times,serif" font-size="14.00">info:ML2GrowTopicModeling/a1f2ad4c&#45;2568&#45;4178&#45;a84a&#45;dcbb066f88b5</text>
</g>
<!-- file&#45;&gt;topicScore -->
<g id="edge1" class="edge">
<title>file&#45;&gt;topicScore</title>
<path fill="none" stroke="black" d="M415.7,-173.59C393.95,-158.93 363,-138.04 341.27,-123.38"/>
<text text-anchor="middle" x="427.5" y="-144.8" font-family="Times,serif" font-size="14.00">[ext:HasTopic]</text>
</g>
<!-- 1 -->
<g id="node3" class="node">
<title>1</title>
<ellipse fill="none" stroke="black" cx="567.5" cy="-105" rx="27" ry="18"/>
<text text-anchor="middle" x="567.5" y="-101.3" font-family="Times,serif" font-size="14.00">1</text>
</g>
<!-- file&#45;&gt;1 -->
<g id="edge2" class="edge">
<title>file&#45;&gt;1</title>
<path fill="none" stroke="black" d="M467.3,-173.59C491.64,-157.18 527.51,-132.98 549.08,-118.43"/>
<text text-anchor="middle" x="652" y="-144.8" font-family="Times,serif" font-size="14.00">[ext:ingestedByMl2GrowSmartRegulationsTopics]</text>
</g>
<!-- topic -->
<g id="node4" class="node">
<title>topic</title>
<polygon fill="none" stroke="black" points="233,-36 0,-36 0,0 233,0 233,-36"/>
<text text-anchor="middle" x="116.5" y="-14.3" font-family="Times,serif" font-size="14.00">info:ML2GrowTopicModeling/topic/60</text>
</g>
<!-- topicScore&#45;&gt;topic -->
<g id="edge4" class="edge">
<title>topicScore&#45;&gt;topic</title>
<path fill="none" stroke="black" d="M270.04,-86.65C256.02,-81.15 240.57,-74.96 226.5,-69 202.06,-58.65 174.92,-46.32 153.71,-36.49"/>
<text text-anchor="middle" x="269" y="-57.8" font-family="Times,serif" font-size="14.00">[ext:TopicURI]</text>
</g>
<!-- ext:TopicScore -->
<g id="node5" class="node">
<title>ext:TopicScore</title>
<ellipse fill="none" stroke="black" cx="315.5" cy="-18" rx="64.19" ry="18"/>
<text text-anchor="middle" x="315.5" y="-14.3" font-family="Times,serif" font-size="14.00">ext:TopicScore</text>
</g>
<!-- topicScore&#45;&gt;ext:TopicScore -->
<g id="edge3" class="edge">
<title>topicScore&#45;&gt;ext:TopicScore</title>
<path fill="none" stroke="black" d="M315.5,-86.8C315.5,-72.15 315.5,-51.19 315.5,-36.47"/>
<text text-anchor="middle" x="341.5" y="-57.8" font-family="Times,serif" font-size="14.00">[rdf:type]</text>
</g>
<!-- 0.62123157715132 -->
<g id="node6" class="node">
<title>0.62123157715132</title>
<ellipse fill="none" stroke="black" cx="477.5" cy="-18" rx="79.09" ry="18"/>
<text text-anchor="middle" x="477.5" y="-14.3" font-family="Times,serif" font-size="14.00">0.62123157715132</text>
</g>
<!-- topicScore&#45;&gt;0.62123157715132 -->
<g id="edge5" class="edge">
<title>topicScore&#45;&gt;0.62123157715132</title>
<path fill="none" stroke="black" d="M348.67,-86.59C377.56,-71.44 419.08,-49.65 447.11,-34.95"/>
<text text-anchor="middle" x="435.5" y="-57.8" font-family="Times,serif" font-size="14.00">[ext:score]</text>
</g>
</g>
</svg>
