<?xml version="1.0" encoding="UTF-8" standalone="no"?>
<!DOCTYPE svg PUBLIC "-//W3C//DTD SVG 1.1//EN"
 "http://www.w3.org/Graphics/SVG/1.1/DTD/svg11.dtd">
<!-- Generated by graphviz version 7.0.6 (20230106.0513)
 -->
<!-- Title: g Pages: 1 -->
<svg width="756pt" height="218pt"
 viewBox="0.00 0.00 755.79 218.00" xmlns="http://www.w3.org/2000/svg" xmlns:xlink="http://www.w3.org/1999/xlink">
<g id="graph0" class="graph" transform="scale(1 1) rotate(0) translate(4 214)">
<title>g</title>
<polygon fill="white" stroke="none" points="-4,4 -4,-214 751.79,-214 751.79,4 -4,4"/>
<!-- subject -->
<g id="node1" class="node">
<title>subject</title>
<polygon fill="none" stroke="black" points="549.05,-210 309.05,-210 309.05,-174 549.05,-174 549.05,-210"/>
<text text-anchor="middle" x="429.05" y="-188.3" font-family="Times,serif" font-size="14.00">info:ML2GrowTopicModeling/topic/100</text>
</g>
<!-- ext:isTopic -->
<g id="node2" class="node">
<title>ext:isTopic</title>
<ellipse fill="none" stroke="black" cx="50.05" cy="-105" rx="50.09" ry="18"/>
<text text-anchor="middle" x="50.05" y="-101.3" font-family="Times,serif" font-size="14.00">ext:isTopic</text>
</g>
<!-- subject&#45;&gt;ext:isTopic -->
<g id="edge1" class="edge">
<title>subject&#45;&gt;ext:isTopic</title>
<path fill="none" stroke="black" d="M338.3,-173.55C274.01,-160.74 185.89,-142.28 109.05,-123 102.12,-121.26 94.78,-119.27 87.71,-117.27"/>
<text text-anchor="middle" x="275.05" y="-144.8" font-family="Times,serif" font-size="14.00">[rdf:type]</text>
</g>
<!-- relevant_word -->
<g id="node3" class="node">
<title>relevant_word</title>
<polygon fill="none" stroke="black" points="456.05,-123 118.05,-123 118.05,-87 456.05,-87 456.05,-123"/>
<text text-anchor="middle" x="287.05" y="-101.3" font-family="Times,serif" font-size="14.00">info:ML2GrowTopicModeling/topic/100/relevant_words/0</text>
</g>
<!-- subject&#45;&gt;relevant_word -->
<g id="edge2" class="edge">
<title>subject&#45;&gt;relevant_word</title>
<path fill="none" stroke="black" d="M371.76,-173.5C359.83,-168.69 347.66,-162.87 337.05,-156 323.24,-147.06 310.18,-133.78 300.88,-123.15"/>
<text text-anchor="middle" x="397.05" y="-144.8" font-family="Times,serif" font-size="14.00">[ext:relevant_words]*</text>
</g>
<!-- 53 -->
<g id="node4" class="node">
<title>53</title>
<ellipse fill="none" stroke="black" cx="501.05" cy="-105" rx="27" ry="18"/>
<text text-anchor="middle" x="501.05" y="-101.3" font-family="Times,serif" font-size="14.00">53</text>
</g>
<!-- subject&#45;&gt;53 -->
<g id="edge3" class="edge">
<title>subject&#45;&gt;53</title>
<path fill="none" stroke="black" d="M443.62,-173.8C456.68,-158.37 475.67,-135.95 488.19,-121.18"/>
<text text-anchor="middle" x="500.05" y="-144.8" font-family="Times,serif" font-size="14.00">[ext:count]</text>
</g>
<!-- vermeld_boring_286_dlb -->
<g id="node5" class="node">
<title>vermeld_boring_286_dlb</title>
<ellipse fill="none" stroke="black" cx="647.05" cy="-105" rx="100.98" ry="18"/>
<text text-anchor="middle" x="647.05" y="-101.3" font-family="Times,serif" font-size="14.00">vermeld_boring_286_dlb</text>
</g>
<!-- subject&#45;&gt;vermeld_boring_286_dlb -->
<g id="edge4" class="edge">
<title>subject&#45;&gt;vermeld_boring_286_dlb</title>
<path fill="none" stroke="black" d="M484.71,-173.54C500.74,-168.21 518.19,-162.14 534.05,-156 560.86,-145.63 590.56,-132.41 612.78,-122.18"/>
<text text-anchor="middle" x="613.05" y="-144.8" font-family="Times,serif" font-size="14.00">[ext:topic_label]</text>
</g>
<!-- ext:relevant_word -->
<g id="node6" class="node">
<title>ext:relevant_word</title>
<ellipse fill="none" stroke="black" cx="111.05" cy="-18" rx="74.99" ry="18"/>
<text text-anchor="middle" x="111.05" y="-14.3" font-family="Times,serif" font-size="14.00">ext:relevant_word</text>
</g>
<!-- relevant_word&#45;&gt;ext:relevant_word -->
<g id="edge5" class="edge">
<title>relevant_word&#45;&gt;ext:relevant_word</title>
<path fill="none" stroke="black" d="M251,-86.59C219.43,-71.34 173.94,-49.38 143.48,-34.67"/>
<text text-anchor="middle" x="236.05" y="-57.8" font-family="Times,serif" font-size="14.00">[rdf:type]</text>
</g>
<!-- 0.012454516208949 -->
<g id="node7" class="node">
<title>0.012454516208949</title>
<ellipse fill="none" stroke="black" cx="287.05" cy="-18" rx="83.39" ry="18"/>
<text text-anchor="middle" x="287.05" y="-14.3" font-family="Times,serif" font-size="14.00">0.012454516208949</text>
</g>
<!-- relevant_word&#45;&gt;0.012454516208949 -->
<g id="edge6" class="edge">
<title>relevant_word&#45;&gt;0.012454516208949</title>
<path fill="none" stroke="black" d="M287.05,-86.8C287.05,-72.15 287.05,-51.19 287.05,-36.47"/>
<text text-anchor="middle" x="316.05" y="-57.8" font-family="Times,serif" font-size="14.00">[ext:score]</text>
</g>
<!-- vermeld -->
<g id="node8" class="node">
<title>vermeld</title>
<ellipse fill="none" stroke="black" cx="428.05" cy="-18" rx="40.09" ry="18"/>
<text text-anchor="middle" x="428.05" y="-14.3" font-family="Times,serif" font-size="14.00">vermeld</text>
</g>
<!-- relevant_word&#45;&gt;vermeld -->
<g id="edge7" class="edge">
<title>relevant_word&#45;&gt;vermeld</title>
<path fill="none" stroke="black" d="M318.45,-86.68C328.3,-81.13 339.18,-74.9 349.05,-69 368.55,-57.33 390.35,-43.47 406.1,-33.31"/>
<text text-anchor="middle" x="403.05" y="-57.8" font-family="Times,serif" font-size="14.00">[ext:word]</text>
</g>
</g>
</svg>
