<?xml version="1.0" encoding="UTF-8" standalone="no"?>
<!DOCTYPE svg PUBLIC "-//W3C//DTD SVG 1.1//EN"
 "http://www.w3.org/Graphics/SVG/1.1/DTD/svg11.dtd">
<!-- Generated by graphviz version 7.0.6 (20230106.0513)
 -->
<!-- Title: g Pages: 1 -->
<svg width="550pt" height="170pt"
 viewBox="0.00 0.00 550.12 169.95" xmlns="http://www.w3.org/2000/svg" xmlns:xlink="http://www.w3.org/1999/xlink">
<g id="graph0" class="graph" transform="scale(1 1) rotate(0) translate(4 165.95)">
<title>g</title>
<polygon fill="white" stroke="none" points="-4,4 -4,-165.95 546.12,-165.95 546.12,4 -4,4"/>
<!-- subject -->
<g id="node1" class="node">
<title>subject</title>
<polygon fill="none" stroke="black" points="315.62,-161.95 36.62,-161.95 36.62,-125.95 315.62,-125.95 315.62,-161.95"/>
<text text-anchor="middle" x="176.12" y="-140.25" font-family="Times,serif" font-size="14.00">info:submissions/6141B82FE575460008000187</text>
</g>
<!-- [0.2369632124900818,\n 0.3541308045387268,\n ... ] -->
<g id="node2" class="node">
<title>[0.2369632124900818,\n 0.3541308045387268,\n ... ]</title>
<ellipse fill="none" stroke="black" cx="101.12" cy="-37.48" rx="101.23" ry="37.45"/>
<text text-anchor="middle" x="101.12" y="-48.78" font-family="Times,serif" font-size="14.00">[0.2369632124900818,</text>
<text text-anchor="middle" x="101.12" y="-33.78" font-family="Times,serif" font-size="14.00"> 0.3541308045387268,</text>
<text text-anchor="middle" x="101.12" y="-18.78" font-family="Times,serif" font-size="14.00"> ... ]</text>
</g>
<!-- subject&#45;&gt;[0.2369632124900818,\n 0.3541308045387268,\n ... ] -->
<g id="edge1" class="edge">
<title>subject&#45;&gt;[0.2369632124900818,\n 0.3541308045387268,\n ... ]</title>
<path fill="none" stroke="black" d="M120.88,-125.66C113.46,-121.05 106.81,-115.24 102.12,-107.95 95.98,-98.42 94.22,-86.52 94.44,-75.27"/>
<text text-anchor="middle" x="165.62" y="-96.75" font-family="Times,serif" font-size="14.00">[ext:searchEmbedding]</text>
</g>
<!-- 1 -->
<g id="node3" class="node">
<title>1</title>
<ellipse fill="none" stroke="black" cx="251.12" cy="-37.48" rx="27" ry="18"/>
<text text-anchor="middle" x="251.12" y="-33.78" font-family="Times,serif" font-size="14.00">1</text>
</g>
<!-- subject&#45;&gt;1 -->
<g id="edge2" class="edge">
<title>subject&#45;&gt;1</title>
<path fill="none" stroke="black" d="M210.11,-125.48C217.16,-120.59 224,-114.73 229.12,-107.95 240.78,-92.51 246.36,-70.71 248.96,-55.67"/>
<text text-anchor="middle" x="389.62" y="-96.75" font-family="Times,serif" font-size="14.00">[ext:ingestedByMl2GrowSmartRegulationsEmbedding]</text>
</g>
</g>
</svg>
