<?xml version="1.0" encoding="UTF-8" standalone="no"?>
<!DOCTYPE svg PUBLIC "-//W3C//DTD SVG 1.1//EN"
 "http://www.w3.org/Graphics/SVG/1.1/DTD/svg11.dtd">
<!-- Generated by graphviz version 7.0.6 (20230106.0513)
 -->
<!-- Title: g Pages: 1 -->
<svg width="649pt" height="218pt"
 viewBox="0.00 0.00 648.50 218.00" xmlns="http://www.w3.org/2000/svg" xmlns:xlink="http://www.w3.org/1999/xlink">
<g id="graph0" class="graph" transform="scale(1 1) rotate(0) translate(4 214)">
<title>g</title>
<polygon fill="white" stroke="none" points="-4,4 -4,-214 644.5,-214 644.5,4 -4,4"/>
<!-- subject -->
<g id="node1" class="node">
<title>subject</title>
<polygon fill="none" stroke="black" points="393.5,-123 97.5,-123 97.5,-87 393.5,-87 393.5,-123"/>
<text text-anchor="middle" x="245.5" y="-101.3" font-family="Times,serif" font-size="14.00">info:ners/00084665&#45;bb57&#45;4f82&#45;83f3&#45;898be4be6612</text>
</g>
<!-- organization -->
<g id="node2" class="node">
<title>organization</title>
<polygon fill="none" stroke="black" points="107,-36 0,-36 0,0 107,0 107,-36"/>
<text text-anchor="middle" x="53.5" y="-14.3" font-family="Times,serif" font-size="14.00">ext:Organization</text>
</g>
<!-- subject&#45;&gt;organization -->
<g id="edge5" class="edge">
<title>subject&#45;&gt;organization</title>
<path fill="none" stroke="black" d="M159.32,-86.6C143.96,-81.94 128.43,-76.14 114.5,-69 98.05,-60.56 81.99,-47.12 70.48,-36.3"/>
<text text-anchor="middle" x="145" y="-57.8" font-family="Times,serif" font-size="14.00">[ext:entity]</text>
</g>
<!-- ext:Ner -->
<g id="node3" class="node">
<title>ext:Ner</title>
<ellipse fill="none" stroke="black" cx="162.5" cy="-18" rx="37.09" ry="18"/>
<text text-anchor="middle" x="162.5" y="-14.3" font-family="Times,serif" font-size="14.00">ext:Ner</text>
</g>
<!-- subject&#45;&gt;ext:Ner -->
<g id="edge1" class="edge">
<title>subject&#45;&gt;ext:Ner</title>
<path fill="none" stroke="black" d="M212.36,-86.63C204.62,-81.61 196.8,-75.66 190.5,-69 181.48,-59.46 174.32,-46.46 169.49,-36.11"/>
<text text-anchor="middle" x="216.5" y="-57.8" font-family="Times,serif" font-size="14.00">[rdf:type]</text>
</g>
<!-- 7328 -->
<g id="node4" class="node">
<title>7328</title>
<ellipse fill="none" stroke="black" cx="246.5" cy="-18" rx="28.7" ry="18"/>
<text text-anchor="middle" x="246.5" y="-14.3" font-family="Times,serif" font-size="14.00">7328</text>
</g>
<!-- subject&#45;&gt;7328 -->
<g id="edge2" class="edge">
<title>subject&#45;&gt;7328</title>
<path fill="none" stroke="black" d="M245.7,-86.8C245.87,-72.15 246.12,-51.19 246.29,-36.47"/>
<text text-anchor="middle" x="273" y="-57.8" font-family="Times,serif" font-size="14.00">[ext:start]</text>
</g>
<!-- 7336 -->
<g id="node5" class="node">
<title>7336</title>
<ellipse fill="none" stroke="black" cx="321.5" cy="-18" rx="28.7" ry="18"/>
<text text-anchor="middle" x="321.5" y="-14.3" font-family="Times,serif" font-size="14.00">7336</text>
</g>
<!-- subject&#45;&gt;7336 -->
<g id="edge3" class="edge">
<title>subject&#45;&gt;7336</title>
<path fill="none" stroke="black" d="M279.04,-86.58C286.45,-81.63 293.78,-75.72 299.5,-69 307.61,-59.47 313.21,-46.47 316.73,-36.12"/>
<text text-anchor="middle" x="334" y="-57.8" font-family="Times,serif" font-size="14.00">[ext:end]</text>
</g>
<!-- Medirest -->
<g id="node6" class="node">
<title>Medirest</title>
<ellipse fill="none" stroke="black" cx="410.5" cy="-18" rx="42.49" ry="18"/>
<text text-anchor="middle" x="410.5" y="-14.3" font-family="Times,serif" font-size="14.00">Medirest</text>
</g>
<!-- subject&#45;&gt;Medirest -->
<g id="edge4" class="edge">
<title>subject&#45;&gt;Medirest</title>
<path fill="none" stroke="black" d="M324.37,-86.51C337.61,-81.88 350.83,-76.13 362.5,-69 376.67,-60.35 389.51,-46.49 398.34,-35.56"/>
<text text-anchor="middle" x="408.5" y="-57.8" font-family="Times,serif" font-size="14.00">[ext:word]</text>
</g>
<!-- file -->
<g id="node7" class="node">
<title>file</title>
<polygon fill="none" stroke="black" points="486,-210 199,-210 199,-174 486,-174 486,-210"/>
<text text-anchor="middle" x="342.5" y="-188.3" font-family="Times,serif" font-size="14.00">info:submissions/61D5740AE4465300080001BA</text>
</g>
<!-- file&#45;&gt;subject -->
<g id="edge6" class="edge">
<title>file&#45;&gt;subject</title>
<path fill="none" stroke="black" d="M322.87,-173.8C306.15,-159.15 282.24,-138.19 265.43,-123.47"/>
<text text-anchor="middle" x="338" y="-144.8" font-family="Times,serif" font-size="14.00">[ext:hasNer]*</text>
</g>
<!-- 1 -->
<g id="node8" class="node">
<title>1</title>
<ellipse fill="none" stroke="black" cx="438.5" cy="-105" rx="27" ry="18"/>
<text text-anchor="middle" x="438.5" y="-101.3" font-family="Times,serif" font-size="14.00">1</text>
</g>
<!-- file&#45;&gt;1 -->
<g id="edge7" class="edge">
<title>file&#45;&gt;1</title>
<path fill="none" stroke="black" d="M361.93,-173.8C379.79,-157.98 405.95,-134.82 422.6,-120.08"/>
<text text-anchor="middle" x="518" y="-144.8" font-family="Times,serif" font-size="14.00">[ext:ingestedml2GrowSmartRegulationsNer]</text>
</g>
</g>
</svg>
