<?xml version="1.0" encoding="UTF-8" standalone="no"?>
<!DOCTYPE svg PUBLIC "-//W3C//DTD SVG 1.1//EN"
 "http://www.w3.org/Graphics/SVG/1.1/DTD/svg11.dtd">
<!-- Generated by graphviz version 7.0.6 (20230106.0513)
 -->
<!-- Title: g Pages: 1 -->
<svg width="871pt" height="305pt"
 viewBox="0.00 0.00 870.79 305.00" xmlns="http://www.w3.org/2000/svg" xmlns:xlink="http://www.w3.org/1999/xlink">
<g id="graph0" class="graph" transform="scale(1 1) rotate(0) translate(4 301)">
<title>g</title>
<polygon fill="white" stroke="none" points="-4,4 -4,-301 866.79,-301 866.79,4 -4,4"/>
<!-- bbc_classification -->
<g id="node1" class="node">
<title>bbc_classification</title>
<polygon fill="none" stroke="black" points="448.29,-123 47.29,-123 47.29,-87 448.29,-87 448.29,-123"/>
<text text-anchor="middle" x="247.79" y="-101.3" font-family="Times,serif" font-size="14.00">info:ML2GrowClassification/87adadcd&#45;b5ef&#45;4c89&#45;9ca8&#45;b4d7c0bf4e13</text>
</g>
<!-- ext:BBC_lvl1 -->
<g id="node2" class="node">
<title>ext:BBC_lvl1</title>
<ellipse fill="none" stroke="black" cx="59.79" cy="-18" rx="59.59" ry="18"/>
<text text-anchor="middle" x="59.79" y="-14.3" font-family="Times,serif" font-size="14.00">ext:BBC_lvl1</text>
</g>
<!-- bbc_classification&#45;&gt;ext:BBC_lvl1 -->
<g id="edge1" class="edge">
<title>bbc_classification&#45;&gt;ext:BBC_lvl1</title>
<path fill="none" stroke="black" d="M209.3,-86.59C174.71,-70.95 124.49,-48.25 91.99,-33.56"/>
<text text-anchor="middle" x="191.79" y="-57.8" font-family="Times,serif" font-size="14.00">[rdf:type]</text>
</g>
<!-- getting around and mobility -->
<g id="node3" class="node">
<title>getting around and mobility</title>
<ellipse fill="none" stroke="black" cx="247.79" cy="-18" rx="109.68" ry="18"/>
<text text-anchor="middle" x="247.79" y="-14.3" font-family="Times,serif" font-size="14.00">getting around and mobility</text>
</g>
<!-- bbc_classification&#45;&gt;getting around and mobility -->
<g id="edge2" class="edge">
<title>bbc_classification&#45;&gt;getting around and mobility</title>
<path fill="none" stroke="black" d="M247.79,-86.8C247.79,-72.15 247.79,-51.19 247.79,-36.47"/>
<text text-anchor="middle" x="299.79" y="-57.8" font-family="Times,serif" font-size="14.00">[ext:en_taxonomy]</text>
</g>
<!-- Zich verplaatsen en mobiliteit -->
<g id="node4" class="node">
<title>Zich verplaatsen en mobiliteit</title>
<ellipse fill="none" stroke="black" cx="492.79" cy="-18" rx="116.98" ry="18"/>
<text text-anchor="middle" x="492.79" y="-14.3" font-family="Times,serif" font-size="14.00">Zich verplaatsen en mobiliteit</text>
</g>
<!-- bbc_classification&#45;&gt;Zich verplaatsen en mobiliteit -->
<g id="edge3" class="edge">
<title>bbc_classification&#45;&gt;Zich verplaatsen en mobiliteit</title>
<path fill="none" stroke="black" d="M302.87,-86.58C319.88,-81.09 338.65,-74.9 355.79,-69 387.39,-58.12 422.83,-45.16 449.75,-35.17"/>
<text text-anchor="middle" x="448.79" y="-57.8" font-family="Times,serif" font-size="14.00">[ext:nl_taxonomy]</text>
</g>
<!-- subject -->
<g id="node5" class="node">
<title>subject</title>
<polygon fill="none" stroke="black" points="618.29,-210 179.29,-210 179.29,-174 618.29,-174 618.29,-210"/>
<text text-anchor="middle" x="398.79" y="-188.3" font-family="Times,serif" font-size="14.00">info:ML2GrowClassification/score/f6cddc91&#45;0de4&#45;40d5&#45;8953&#45;5484934cb29c</text>
</g>
<!-- subject&#45;&gt;bbc_classification -->
<g id="edge4" class="edge">
<title>subject&#45;&gt;bbc_classification</title>
<path fill="none" stroke="black" d="M367.87,-173.59C341.82,-158.93 304.72,-138.04 278.67,-123.38"/>
<text text-anchor="middle" x="358.79" y="-144.8" font-family="Times,serif" font-size="14.00">[rdf:type]</text>
</g>
<!-- 0.098363965749741 -->
<g id="node6" class="node">
<title>0.098363965749741</title>
<ellipse fill="none" stroke="black" cx="549.79" cy="-105" rx="83.39" ry="18"/>
<text text-anchor="middle" x="549.79" y="-101.3" font-family="Times,serif" font-size="14.00">0.098363965749741</text>
</g>
<!-- subject&#45;&gt;0.098363965749741 -->
<g id="edge5" class="edge">
<title>subject&#45;&gt;0.098363965749741</title>
<path fill="none" stroke="black" d="M429.72,-173.59C456.46,-158.54 494.84,-136.93 520.96,-122.23"/>
<text text-anchor="middle" x="512.79" y="-144.8" font-family="Times,serif" font-size="14.00">[ext:score]</text>
</g>
<!-- file -->
<g id="node7" class="node">
<title>file</title>
<polygon fill="none" stroke="black" points="700.29,-297 361.29,-297 361.29,-261 700.29,-261 700.29,-297"/>
<text text-anchor="middle" x="530.79" y="-275.3" font-family="Times,serif" font-size="14.00">info:submissions/000f8300&#45;9558&#45;11ec&#45;b711&#45;ebd518564af2</text>
</g>
<!-- file&#45;&gt;subject -->
<g id="edge6" class="edge">
<title>file&#45;&gt;subject</title>
<path fill="none" stroke="black" d="M503.76,-260.59C480.99,-245.93 448.56,-225.04 425.79,-210.38"/>
<text text-anchor="middle" x="527.79" y="-231.8" font-family="Times,serif" font-size="14.00">[ext:BBC_scoring]*</text>
</g>
<!-- 1 -->
<g id="node8" class="node">
<title>1</title>
<ellipse fill="none" stroke="black" cx="663.79" cy="-192" rx="27" ry="18"/>
<text text-anchor="middle" x="663.79" y="-188.3" font-family="Times,serif" font-size="14.00">1</text>
</g>
<!-- file&#45;&gt;1 -->
<g id="edge7" class="edge">
<title>file&#45;&gt;1</title>
<path fill="none" stroke="black" d="M558.77,-260.65C567.74,-255.05 577.71,-248.79 586.79,-243 606.69,-230.32 629.32,-215.59 644.87,-205.42"/>
<text text-anchor="middle" x="736.29" y="-231.8" font-family="Times,serif" font-size="14.00">[ext:ingestedMl2GrowSmartRegulationsBBC]</text>
</g>
</g>
</svg>
