<?xml version="1.0" encoding="UTF-8" standalone="no"?>
<!DOCTYPE svg PUBLIC "-//W3C//DTD SVG 1.1//EN"
 "http://www.w3.org/Graphics/SVG/1.1/DTD/svg11.dtd">
<!-- Generated by graphviz version 7.0.6 (20230106.0513)
 -->
<!-- Pages: 1 -->
<svg width="279pt" height="44pt"
 viewBox="0.00 0.00 278.99 44.00" xmlns="http://www.w3.org/2000/svg" xmlns:xlink="http://www.w3.org/1999/xlink">
<g id="graph0" class="graph" transform="scale(1 1) rotate(0) translate(4 40)">
<polygon fill="white" stroke="none" points="-4,4 -4,-40 274.99,-40 274.99,4 -4,4"/>
<!-- load -->
<g id="node1" class="node">
<title>load</title>
<ellipse fill="none" stroke="black" cx="27" cy="-18" rx="27" ry="18"/>
<text text-anchor="middle" x="27" y="-14.3" font-family="Times,serif" font-size="14.00">load</text>
</g>
<!-- transform -->
<g id="node2" class="node">
<title>transform</title>
<ellipse fill="none" stroke="black" cx="135.5" cy="-18" rx="45.49" ry="18"/>
<text text-anchor="middle" x="135.5" y="-14.3" font-family="Times,serif" font-size="14.00">transform</text>
</g>
<!-- load&#45;&gt;transform -->
<g id="edge1" class="edge">
<title>load&#45;&gt;transform</title>
<path fill="none" stroke="black" d="M54.32,-18C61.69,-18 69.99,-18 78.39,-18"/>
<polygon fill="black" stroke="black" points="78.31,-21.5 88.31,-18 78.31,-14.5 78.31,-21.5"/>
</g>
<!-- save -->
<g id="node3" class="node">
<title>save</title>
<ellipse fill="none" stroke="black" cx="243.99" cy="-18" rx="27" ry="18"/>
<text text-anchor="middle" x="243.99" y="-14.3" font-family="Times,serif" font-size="14.00">save</text>
</g>
<!-- transform&#45;&gt;save -->
<g id="edge2" class="edge">
<title>transform&#45;&gt;save</title>
<path fill="none" stroke="black" d="M181.35,-18C189.35,-18 197.62,-18 205.39,-18"/>
<polygon fill="black" stroke="black" points="205.2,-21.5 215.2,-18 205.2,-14.5 205.2,-21.5"/>
</g>
</g>
</svg>
