<?xml version="1.0" encoding="UTF-8" standalone="no"?>
<!DOCTYPE svg PUBLIC "-//W3C//DTD SVG 1.1//EN"
 "http://www.w3.org/Graphics/SVG/1.1/DTD/svg11.dtd">
<!-- Generated by graphviz version 7.0.6 (20230106.0513)
 -->
<!-- Pages: 1 -->
<svg width="699pt" height="98pt"
 viewBox="0.00 0.00 699.25 98.00" xmlns="http://www.w3.org/2000/svg" xmlns:xlink="http://www.w3.org/1999/xlink">
<g id="graph0" class="graph" transform="scale(1 1) rotate(0) translate(4 94)">
<polygon fill="white" stroke="none" points="-4,4 -4,-94 695.25,-94 695.25,4 -4,4"/>
<!-- load_bertopic -->
<g id="node1" class="node">
<title>load_bertopic</title>
<ellipse fill="none" stroke="black" cx="59.14" cy="-45" rx="59.29" ry="18"/>
<text text-anchor="middle" x="59.14" y="-41.3" font-family="Times,serif" font-size="14.00">load_bertopic</text>
</g>
<!-- retrain_and_save -->
<g id="node2" class="node">
<title>retrain_and_save</title>
<ellipse fill="none" stroke="black" cx="225.13" cy="-45" rx="70.69" ry="18"/>
<text text-anchor="middle" x="225.13" y="-41.3" font-family="Times,serif" font-size="14.00">retrain_and_save</text>
</g>
<!-- load_bertopic&#45;&gt;retrain_and_save -->
<g id="edge1" class="edge">
<title>load_bertopic&#45;&gt;retrain_and_save</title>
<path fill="none" stroke="black" d="M118.89,-45C126.63,-45 134.68,-45 142.72,-45"/>
<polygon fill="black" stroke="black" points="142.53,-48.5 152.53,-45 142.53,-41.5 142.53,-48.5"/>
</g>
<!-- restart -->
<g id="node3" class="node">
<title>restart</title>
<ellipse fill="none" stroke="black" cx="364.47" cy="-45" rx="32.49" ry="18"/>
<text text-anchor="middle" x="364.47" y="-41.3" font-family="Times,serif" font-size="14.00">restart</text>
</g>
<!-- retrain_and_save&#45;&gt;restart -->
<g id="edge2" class="edge">
<title>retrain_and_save&#45;&gt;restart</title>
<path fill="none" stroke="black" d="M296.01,-45C304.28,-45 312.53,-45 320.28,-45"/>
<polygon fill="black" stroke="black" points="320.07,-48.5 330.07,-45 320.07,-41.5 320.07,-48.5"/>
</g>
<!-- transform -->
<g id="node4" class="node">
<title>transform</title>
<ellipse fill="none" stroke="black" cx="478.47" cy="-45" rx="45.49" ry="18"/>
<text text-anchor="middle" x="478.47" y="-41.3" font-family="Times,serif" font-size="14.00">transform</text>
</g>
<!-- restart&#45;&gt;transform -->
<g id="edge3" class="edge">
<title>restart&#45;&gt;transform</title>
<path fill="none" stroke="black" d="M397.27,-45C404.83,-45 413.11,-45 421.4,-45"/>
<polygon fill="black" stroke="black" points="421.12,-48.5 431.12,-45 421.12,-41.5 421.12,-48.5"/>
</g>
<!-- save_transform -->
<g id="node5" class="node">
<title>save_transform</title>
<ellipse fill="none" stroke="black" cx="625.61" cy="-72" rx="65.79" ry="18"/>
<text text-anchor="middle" x="625.61" y="-68.3" font-family="Times,serif" font-size="14.00">save_transform</text>
</g>
<!-- transform&#45;&gt;save_transform -->
<g id="edge4" class="edge">
<title>transform&#45;&gt;save_transform</title>
<path fill="none" stroke="black" d="M520.28,-52.59C532.4,-54.85 545.99,-57.38 559.26,-59.84"/>
<polygon fill="black" stroke="black" points="558.32,-63.23 568.79,-61.62 559.6,-56.35 558.32,-63.23"/>
</g>
<!-- save_topics -->
<g id="node6" class="node">
<title>save_topics</title>
<ellipse fill="none" stroke="black" cx="625.61" cy="-18" rx="51.99" ry="18"/>
<text text-anchor="middle" x="625.61" y="-14.3" font-family="Times,serif" font-size="14.00">save_topics</text>
</g>
<!-- transform&#45;&gt;save_topics -->
<g id="edge5" class="edge">
<title>transform&#45;&gt;save_topics</title>
<path fill="none" stroke="black" d="M520.28,-37.41C534.99,-34.67 551.87,-31.53 567.7,-28.59"/>
<polygon fill="black" stroke="black" points="568.32,-32.03 577.51,-26.76 567.04,-25.15 568.32,-32.03"/>
</g>
</g>
</svg>
