<?xml version="1.0" encoding="UTF-8" standalone="no"?>
<!DOCTYPE svg PUBLIC "-//W3C//DTD SVG 1.1//EN"
 "http://www.w3.org/Graphics/SVG/1.1/DTD/svg11.dtd">
<!-- Generated by graphviz version 7.0.6 (20230106.0513)
 -->
<!-- Pages: 1 -->
<svg width="409pt" height="44pt"
 viewBox="0.00 0.00 408.87 44.00" xmlns="http://www.w3.org/2000/svg" xmlns:xlink="http://www.w3.org/1999/xlink">
<g id="graph0" class="graph" transform="scale(1 1) rotate(0) translate(4 40)">
<polygon fill="white" stroke="none" points="-4,4 -4,-40 404.87,-40 404.87,4 -4,4"/>
<!-- load_bertopic -->
<g id="node1" class="node">
<title>load_bertopic</title>
<ellipse fill="none" stroke="black" cx="59.14" cy="-18" rx="59.29" ry="18"/>
<text text-anchor="middle" x="59.14" y="-14.3" font-family="Times,serif" font-size="14.00">load_bertopic</text>
</g>
<!-- transform -->
<g id="node2" class="node">
<title>transform</title>
<ellipse fill="none" stroke="black" cx="199.79" cy="-18" rx="45.49" ry="18"/>
<text text-anchor="middle" x="199.79" y="-14.3" font-family="Times,serif" font-size="14.00">transform</text>
</g>
<!-- load_bertopic&#45;&gt;transform -->
<g id="edge1" class="edge">
<title>load_bertopic&#45;&gt;transform</title>
<path fill="none" stroke="black" d="M118.54,-18C126.49,-18 134.65,-18 142.56,-18"/>
<polygon fill="black" stroke="black" points="142.43,-21.5 152.43,-18 142.43,-14.5 142.43,-21.5"/>
</g>
<!-- save_bertopic -->
<g id="node3" class="node">
<title>save_bertopic</title>
<ellipse fill="none" stroke="black" cx="341.08" cy="-18" rx="59.59" ry="18"/>
<text text-anchor="middle" x="341.08" y="-14.3" font-family="Times,serif" font-size="14.00">save_bertopic</text>
</g>
<!-- transform&#45;&gt;save_bertopic -->
<g id="edge2" class="edge">
<title>transform&#45;&gt;save_bertopic</title>
<path fill="none" stroke="black" d="M245.62,-18C253.3,-18 261.44,-18 269.59,-18"/>
<polygon fill="black" stroke="black" points="269.57,-21.5 279.57,-18 269.57,-14.5 269.57,-21.5"/>
</g>
</g>
</svg>
