<?xml version="1.0" encoding="UTF-8" standalone="no"?>
<!DOCTYPE svg PUBLIC "-//W3C//DTD SVG 1.1//EN"
 "http://www.w3.org/Graphics/SVG/1.1/DTD/svg11.dtd">
<!-- Generated by graphviz version 7.0.6 (20230106.0513)
 -->
<!-- Pages: 1 -->
<svg width="635pt" height="98pt"
 viewBox="0.00 0.00 634.96 98.00" xmlns="http://www.w3.org/2000/svg" xmlns:xlink="http://www.w3.org/1999/xlink">
<g id="graph0" class="graph" transform="scale(1 1) rotate(0) translate(4 94)">
<polygon fill="white" stroke="none" points="-4,4 -4,-94 630.96,-94 630.96,4 -4,4"/>
<!-- load -->
<g id="node1" class="node">
<title>load</title>
<ellipse fill="none" stroke="black" cx="27" cy="-45" rx="27" ry="18"/>
<text text-anchor="middle" x="27" y="-41.3" font-family="Times,serif" font-size="14.00">load</text>
</g>
<!-- retrain_and_save -->
<g id="node2" class="node">
<title>retrain_and_save</title>
<ellipse fill="none" stroke="black" cx="160.84" cy="-45" rx="70.69" ry="18"/>
<text text-anchor="middle" x="160.84" y="-41.3" font-family="Times,serif" font-size="14.00">retrain_and_save</text>
</g>
<!-- load&#45;&gt;retrain_and_save -->
<g id="edge1" class="edge">
<title>load&#45;&gt;retrain_and_save</title>
<path fill="none" stroke="black" d="M54.36,-45C61.57,-45 69.79,-45 78.37,-45"/>
<polygon fill="black" stroke="black" points="78.31,-48.5 88.31,-45 78.31,-41.5 78.31,-48.5"/>
</g>
<!-- restart -->
<g id="node3" class="node">
<title>restart</title>
<ellipse fill="none" stroke="black" cx="300.18" cy="-45" rx="32.49" ry="18"/>
<text text-anchor="middle" x="300.18" y="-41.3" font-family="Times,serif" font-size="14.00">restart</text>
</g>
<!-- retrain_and_save&#45;&gt;restart -->
<g id="edge2" class="edge">
<title>retrain_and_save&#45;&gt;restart</title>
<path fill="none" stroke="black" d="M231.72,-45C239.99,-45 248.24,-45 255.99,-45"/>
<polygon fill="black" stroke="black" points="255.78,-48.5 265.78,-45 255.78,-41.5 255.78,-48.5"/>
</g>
<!-- transform -->
<g id="node4" class="node">
<title>transform</title>
<ellipse fill="none" stroke="black" cx="414.18" cy="-45" rx="45.49" ry="18"/>
<text text-anchor="middle" x="414.18" y="-41.3" font-family="Times,serif" font-size="14.00">transform</text>
</g>
<!-- restart&#45;&gt;transform -->
<g id="edge3" class="edge">
<title>restart&#45;&gt;transform</title>
<path fill="none" stroke="black" d="M332.98,-45C340.54,-45 348.82,-45 357.11,-45"/>
<polygon fill="black" stroke="black" points="356.83,-48.5 366.83,-45 356.83,-41.5 356.83,-48.5"/>
</g>
<!-- save_transform -->
<g id="node5" class="node">
<title>save_transform</title>
<ellipse fill="none" stroke="black" cx="561.32" cy="-72" rx="65.79" ry="18"/>
<text text-anchor="middle" x="561.32" y="-68.3" font-family="Times,serif" font-size="14.00">save_transform</text>
</g>
<!-- transform&#45;&gt;save_transform -->
<g id="edge4" class="edge">
<title>transform&#45;&gt;save_transform</title>
<path fill="none" stroke="black" d="M455.99,-52.59C468.11,-54.85 481.7,-57.38 494.97,-59.84"/>
<polygon fill="black" stroke="black" points="494.03,-63.23 504.51,-61.62 495.31,-56.35 494.03,-63.23"/>
</g>
<!-- save_topics -->
<g id="node6" class="node">
<title>save_topics</title>
<ellipse fill="none" stroke="black" cx="561.32" cy="-18" rx="51.99" ry="18"/>
<text text-anchor="middle" x="561.32" y="-14.3" font-family="Times,serif" font-size="14.00">save_topics</text>
</g>
<!-- transform&#45;&gt;save_topics -->
<g id="edge5" class="edge">
<title>transform&#45;&gt;save_topics</title>
<path fill="none" stroke="black" d="M455.99,-37.41C470.7,-34.67 487.58,-31.53 503.41,-28.59"/>
<polygon fill="black" stroke="black" points="504.03,-32.03 513.22,-26.76 502.75,-25.15 504.03,-32.03"/>
</g>
</g>
</svg>
