<?xml version="1.0" encoding="UTF-8" standalone="no"?>
<!DOCTYPE svg PUBLIC "-//W3C//DTD SVG 1.1//EN"
 "http://www.w3.org/Graphics/SVG/1.1/DTD/svg11.dtd">
<!-- Generated by graphviz version 7.0.6 (20230106.0513)
 -->
<!-- Title: G Pages: 1 -->
<svg width="1028pt" height="617pt"
 viewBox="0.00 0.00 1028.45 617.00" xmlns="http://www.w3.org/2000/svg" xmlns:xlink="http://www.w3.org/1999/xlink">
<g id="graph0" class="graph" transform="scale(1 1) rotate(0) translate(4 613)">
<title>G</title>
<polygon fill="white" stroke="none" points="-4,4 -4,-613 1024.45,-613 1024.45,4 -4,4"/>
<g id="clust2" class="cluster">
<title>cluster_bertopic_rs</title>
<polygon fill="none" stroke="black" points="101.53,-257 101.53,-425 934.28,-425 934.28,-257 101.53,-257"/>
<text text-anchor="middle" x="517.9" y="-409.8" font-family="Times,serif" font-size="14.00">bertopic_retrain_and_save</text>
</g>
<g id="clust3" class="cluster">
<title>%23</title>
<polygon fill="none" stroke="black" points="766.99,-265 766.99,-394 926.28,-394 926.28,-265 766.99,-265"/>
<text text-anchor="middle" x="846.63" y="-378.8" font-family="Times,serif" font-size="14.00">bertopic_retrain_and_save</text>
</g>
<g id="clust4" class="cluster">
<title>cluster_bertopic_ts</title>
<polygon fill="none" stroke="black" points="101.53,-174 101.53,-249 590.55,-249 590.55,-174 101.53,-174"/>
<text text-anchor="middle" x="346.04" y="-233.8" font-family="Times,serif" font-size="14.00">bertopic_transform</text>
</g>
<g id="clust5" class="cluster">
<title>cluster_embed</title>
<polygon fill="none" stroke="black" points="117.13,-8 117.13,-83 585.35,-83 585.35,-8 117.13,-8"/>
<text text-anchor="middle" x="351.24" y="-67.8" font-family="Times,serif" font-size="14.00">embed</text>
</g>
<g id="clust6" class="cluster">
<title>cluster_zeroshot</title>
<polygon fill="none" stroke="black" points="103.28,-433 103.28,-601 591.2,-601 591.2,-433 103.28,-433"/>
<text text-anchor="middle" x="347.24" y="-585.8" font-family="Times,serif" font-size="14.00">zeroshot</text>
</g>
<g id="clust7" class="cluster">
<title>%37</title>
<polygon fill="none" stroke="black" points="111.28,-441 111.28,-570 246.87,-570 246.87,-441 111.28,-441"/>
<text text-anchor="middle" x="179.08" y="-554.8" font-family="Times,serif" font-size="14.00">zeroshot</text>
</g>
<g id="clust8" class="cluster">
<title>cluster_ner</title>
<polygon fill="none" stroke="black" points="129.48,-91 129.48,-166 573,-166 573,-91 129.48,-91"/>
<text text-anchor="middle" x="351.24" y="-150.8" font-family="Times,serif" font-size="14.00">ner</text>
</g>
<!-- start -->
<g id="node1" class="node">
<title>start</title>
<polygon fill="none" stroke="black" points="36.77,-259 0.23,-241 36.77,-223 73.3,-241 36.77,-259"/>
<text text-anchor="middle" x="36.77" y="-237.3" font-family="Times,serif" font-size="14.00">start</text>
</g>
<!-- load_zeroshot -->
<g id="node2" class="node">
<title>load_zeroshot</title>
<ellipse fill="none" stroke="black" cx="179.08" cy="-521" rx="59.59" ry="18"/>
<text text-anchor="middle" x="179.08" y="-517.3" font-family="Times,serif" font-size="14.00">load_zeroshot</text>
</g>
<!-- start&#45;&gt;load_zeroshot -->
<g id="edge1" class="edge">
<title>start&#45;&gt;load_zeroshot</title>
<path fill="none" stroke="black" d="M39.9,-257.71C46.68,-308.3 69.18,-458.52 101.53,-494 106.21,-499.13 111.91,-503.28 118.08,-506.64"/>
<polygon fill="black" stroke="black" points="116.16,-509.61 126.7,-510.67 119.12,-503.26 116.16,-509.61"/>
</g>
<!-- load_taxo -->
<g id="node3" class="node">
<title>load_taxo</title>
<ellipse fill="none" stroke="black" cx="179.08" cy="-467" rx="45.49" ry="18"/>
<text text-anchor="middle" x="179.08" y="-463.3" font-family="Times,serif" font-size="14.00">load_taxo</text>
</g>
<!-- start&#45;&gt;load_taxo -->
<g id="edge2" class="edge">
<title>start&#45;&gt;load_taxo</title>
<path fill="none" stroke="black" d="M39.24,-258.21C43.17,-294.11 56.84,-377.89 101.53,-429 109.76,-438.41 120.85,-445.74 132.04,-451.34"/>
<polygon fill="black" stroke="black" points="130.34,-454.41 140.89,-455.38 133.25,-448.04 130.34,-454.41"/>
</g>
<!-- load_bertopic_rs -->
<g id="node4" class="node">
<title>load_bertopic_rs</title>
<ellipse fill="none" stroke="black" cx="179.08" cy="-283" rx="69.59" ry="18"/>
<text text-anchor="middle" x="179.08" y="-279.3" font-family="Times,serif" font-size="14.00">load_bertopic_rs</text>
</g>
<!-- start&#45;&gt;load_bertopic_rs -->
<g id="edge3" class="edge">
<title>start&#45;&gt;load_bertopic_rs</title>
<path fill="none" stroke="black" d="M60.31,-247.75C76.8,-252.68 99.94,-259.61 121.35,-266.02"/>
<polygon fill="black" stroke="black" points="120.3,-269.36 130.89,-268.87 122.31,-262.65 120.3,-269.36"/>
</g>
<!-- load_bertopic_ts -->
<g id="node5" class="node">
<title>load_bertopic_ts</title>
<ellipse fill="none" stroke="black" cx="179.08" cy="-200" rx="69.59" ry="18"/>
<text text-anchor="middle" x="179.08" y="-196.3" font-family="Times,serif" font-size="14.00">load_bertopic_ts</text>
</g>
<!-- start&#45;&gt;load_bertopic_ts -->
<g id="edge4" class="edge">
<title>start&#45;&gt;load_bertopic_ts</title>
<path fill="none" stroke="black" d="M60.62,-234.32C76.96,-229.55 99.69,-222.9 120.81,-216.73"/>
<polygon fill="black" stroke="black" points="121.6,-220.15 130.22,-213.99 119.63,-213.43 121.6,-220.15"/>
</g>
<!-- load_ner -->
<g id="node6" class="node">
<title>load_ner</title>
<ellipse fill="none" stroke="black" cx="179.08" cy="-117" rx="41.69" ry="18"/>
<text text-anchor="middle" x="179.08" y="-113.3" font-family="Times,serif" font-size="14.00">load_ner</text>
</g>
<!-- start&#45;&gt;load_ner -->
<g id="edge5" class="edge">
<title>start&#45;&gt;load_ner</title>
<path fill="none" stroke="black" d="M47.79,-228.12C59.71,-213.23 80.65,-188.4 101.53,-170 114.71,-158.39 130.48,-147.09 144.28,-137.93"/>
<polygon fill="black" stroke="black" points="146.17,-140.87 152.64,-132.49 142.35,-135.01 146.17,-140.87"/>
</g>
<!-- load_embed -->
<g id="node7" class="node">
<title>load_embed</title>
<ellipse fill="none" stroke="black" cx="179.08" cy="-34" rx="53.89" ry="18"/>
<text text-anchor="middle" x="179.08" y="-30.3" font-family="Times,serif" font-size="14.00">load_embed</text>
</g>
<!-- start&#45;&gt;load_embed -->
<g id="edge6" class="edge">
<title>start&#45;&gt;load_embed</title>
<path fill="none" stroke="black" d="M41.19,-225.05C48.22,-195.25 66.65,-130.24 101.53,-87 111.74,-74.35 125.74,-63.45 138.98,-54.89"/>
<polygon fill="black" stroke="black" points="140.46,-58.1 147.14,-49.87 136.79,-52.14 140.46,-58.1"/>
</g>
<!-- zs_bbc -->
<g id="node17" class="node">
<title>zs_bbc</title>
<ellipse fill="none" stroke="black" cx="355.46" cy="-467" rx="35.19" ry="18"/>
<text text-anchor="middle" x="355.46" y="-463.3" font-family="Times,serif" font-size="14.00">zs_bbc</text>
</g>
<!-- load_zeroshot&#45;&gt;zs_bbc -->
<g id="edge16" class="edge">
<title>load_zeroshot&#45;&gt;zs_bbc</title>
<path fill="none" stroke="black" d="M221.85,-508.07C249.74,-499.43 286.25,-488.12 313.89,-479.56"/>
<polygon fill="black" stroke="black" points="314.81,-482.94 323.32,-476.64 312.74,-476.26 314.81,-482.94"/>
</g>
<!-- load_taxo&#45;&gt;zs_bbc -->
<g id="edge17" class="edge">
<title>load_taxo&#45;&gt;zs_bbc</title>
<path fill="none" stroke="black" d="M224.99,-467C250.63,-467 282.71,-467 308.52,-467"/>
<polygon fill="black" stroke="black" points="308.38,-470.5 318.38,-467 308.38,-463.5 308.38,-470.5"/>
</g>
<!-- retrain_and_save -->
<g id="node8" class="node">
<title>retrain_and_save</title>
<ellipse fill="none" stroke="black" cx="355.46" cy="-283" rx="70.69" ry="18"/>
<text text-anchor="middle" x="355.46" y="-279.3" font-family="Times,serif" font-size="14.00">retrain_and_save</text>
</g>
<!-- load_bertopic_rs&#45;&gt;retrain_and_save -->
<g id="edge7" class="edge">
<title>load_bertopic_rs&#45;&gt;retrain_and_save</title>
<path fill="none" stroke="black" d="M249,-283C256.89,-283 265,-283 273.04,-283"/>
<polygon fill="black" stroke="black" points="272.81,-286.5 282.81,-283 272.81,-279.5 272.81,-286.5"/>
</g>
<!-- transform_ts -->
<g id="node13" class="node">
<title>transform_ts</title>
<ellipse fill="none" stroke="black" cx="355.46" cy="-200" rx="55.79" ry="18"/>
<text text-anchor="middle" x="355.46" y="-196.3" font-family="Times,serif" font-size="14.00">transform_ts</text>
</g>
<!-- load_bertopic_ts&#45;&gt;transform_ts -->
<g id="edge12" class="edge">
<title>load_bertopic_ts&#45;&gt;transform_ts</title>
<path fill="none" stroke="black" d="M249,-200C261.75,-200 275.06,-200 287.75,-200"/>
<polygon fill="black" stroke="black" points="287.68,-203.5 297.68,-200 287.68,-196.5 287.68,-203.5"/>
</g>
<!-- ner -->
<g id="node19" class="node">
<title>ner</title>
<ellipse fill="none" stroke="black" cx="355.46" cy="-117" rx="27" ry="18"/>
<text text-anchor="middle" x="355.46" y="-113.3" font-family="Times,serif" font-size="14.00">ner</text>
</g>
<!-- load_ner&#45;&gt;ner -->
<g id="edge19" class="edge">
<title>load_ner&#45;&gt;ner</title>
<path fill="none" stroke="black" d="M220.96,-117C249.94,-117 288.54,-117 316.78,-117"/>
<polygon fill="black" stroke="black" points="316.67,-120.5 326.67,-117 316.67,-113.5 316.67,-120.5"/>
</g>
<!-- embed -->
<g id="node15" class="node">
<title>embed</title>
<ellipse fill="none" stroke="black" cx="355.46" cy="-34" rx="34.39" ry="18"/>
<text text-anchor="middle" x="355.46" y="-30.3" font-family="Times,serif" font-size="14.00">embed</text>
</g>
<!-- load_embed&#45;&gt;embed -->
<g id="edge14" class="edge">
<title>load_embed&#45;&gt;embed</title>
<path fill="none" stroke="black" d="M233.35,-34C257.68,-34 286.19,-34 309.44,-34"/>
<polygon fill="black" stroke="black" points="309.21,-37.5 319.21,-34 309.21,-30.5 309.21,-37.5"/>
</g>
<!-- restart -->
<g id="node9" class="node">
<title>restart</title>
<ellipse fill="none" stroke="black" cx="522.75" cy="-287" rx="32.49" ry="18"/>
<text text-anchor="middle" x="522.75" y="-283.3" font-family="Times,serif" font-size="14.00">restart</text>
</g>
<!-- retrain_and_save&#45;&gt;restart -->
<g id="edge8" class="edge">
<title>retrain_and_save&#45;&gt;restart</title>
<path fill="none" stroke="black" d="M426.08,-284.68C443.97,-285.12 462.7,-285.57 478.79,-285.96"/>
<polygon fill="black" stroke="black" points="478.4,-289.45 488.48,-286.19 478.57,-282.45 478.4,-289.45"/>
</g>
<!-- transform_rs -->
<g id="node10" class="node">
<title>transform_rs</title>
<ellipse fill="none" stroke="black" cx="675.09" cy="-291" rx="55.79" ry="18"/>
<text text-anchor="middle" x="675.09" y="-287.3" font-family="Times,serif" font-size="14.00">transform_rs</text>
</g>
<!-- restart&#45;&gt;transform_rs -->
<g id="edge9" class="edge">
<title>restart&#45;&gt;transform_rs</title>
<path fill="none" stroke="black" d="M555.64,-287.85C570.84,-288.25 589.62,-288.75 607.72,-289.23"/>
<polygon fill="black" stroke="black" points="607.56,-292.73 617.65,-289.5 607.75,-285.73 607.56,-292.73"/>
</g>
<!-- save_transform -->
<g id="node11" class="node">
<title>save_transform</title>
<ellipse fill="none" stroke="black" cx="846.63" cy="-345" rx="65.79" ry="18"/>
<text text-anchor="middle" x="846.63" y="-341.3" font-family="Times,serif" font-size="14.00">save_transform</text>
</g>
<!-- transform_rs&#45;&gt;save_transform -->
<g id="edge10" class="edge">
<title>transform_rs&#45;&gt;save_transform</title>
<path fill="none" stroke="black" d="M715.84,-303.66C738.52,-310.88 767.25,-320.04 791.92,-327.89"/>
<polygon fill="black" stroke="black" points="790.53,-331.12 801.12,-330.82 792.66,-324.45 790.53,-331.12"/>
</g>
<!-- save_topics -->
<g id="node12" class="node">
<title>save_topics</title>
<ellipse fill="none" stroke="black" cx="846.63" cy="-291" rx="51.99" ry="18"/>
<text text-anchor="middle" x="846.63" y="-287.3" font-family="Times,serif" font-size="14.00">save_topics</text>
</g>
<!-- transform_rs&#45;&gt;save_topics -->
<g id="edge11" class="edge">
<title>transform_rs&#45;&gt;save_topics</title>
<path fill="none" stroke="black" d="M731.14,-291C747.63,-291 765.85,-291 782.81,-291"/>
<polygon fill="black" stroke="black" points="782.8,-294.5 792.8,-291 782.8,-287.5 782.8,-294.5"/>
</g>
<!-- end -->
<g id="node21" class="node">
<title>end</title>
<polygon fill="none" stroke="black" points="987.37,-282 954.19,-264 987.37,-246 1020.54,-264 987.37,-282"/>
<text text-anchor="middle" x="987.37" y="-260.3" font-family="Times,serif" font-size="14.00">end</text>
</g>
<!-- save_transform&#45;&gt;end -->
<g id="edge21" class="edge">
<title>save_transform&#45;&gt;end</title>
<path fill="none" stroke="black" d="M898.51,-333.79C910.75,-329.86 923.41,-324.7 934.28,-318 947.96,-309.56 960.56,-296.7 969.94,-285.65"/>
<polygon fill="black" stroke="black" points="972.48,-288.08 976.06,-278.11 967.04,-283.67 972.48,-288.08"/>
</g>
<!-- save_topics&#45;&gt;end -->
<g id="edge22" class="edge">
<title>save_topics&#45;&gt;end</title>
<path fill="none" stroke="black" d="M892.67,-282.23C911.54,-278.56 933.14,-274.36 950.85,-270.91"/>
<polygon fill="black" stroke="black" points="951.5,-274.35 960.65,-269.01 950.16,-267.48 951.5,-274.35"/>
</g>
<!-- save_bertopic -->
<g id="node14" class="node">
<title>save_bertopic</title>
<ellipse fill="none" stroke="black" cx="522.75" cy="-200" rx="59.59" ry="18"/>
<text text-anchor="middle" x="522.75" y="-196.3" font-family="Times,serif" font-size="14.00">save_bertopic</text>
</g>
<!-- transform_ts&#45;&gt;save_bertopic -->
<g id="edge13" class="edge">
<title>transform_ts&#45;&gt;save_bertopic</title>
<path fill="none" stroke="black" d="M411.5,-200C424.34,-200 438.19,-200 451.58,-200"/>
<polygon fill="black" stroke="black" points="451.18,-203.5 461.18,-200 451.18,-196.5 451.18,-203.5"/>
</g>
<!-- save_bertopic&#45;&gt;end -->
<g id="edge23" class="edge">
<title>save_bertopic&#45;&gt;end</title>
<path fill="none" stroke="black" d="M577.73,-207.47C672.57,-220.59 866.83,-247.46 948.68,-258.79"/>
<polygon fill="black" stroke="black" points="948.03,-262.23 958.41,-260.13 948.99,-255.3 948.03,-262.23"/>
</g>
<!-- save_embed -->
<g id="node16" class="node">
<title>save_embed</title>
<ellipse fill="none" stroke="black" cx="522.75" cy="-34" rx="54.69" ry="18"/>
<text text-anchor="middle" x="522.75" y="-30.3" font-family="Times,serif" font-size="14.00">save_embed</text>
</g>
<!-- embed&#45;&gt;save_embed -->
<g id="edge15" class="edge">
<title>embed&#45;&gt;save_embed</title>
<path fill="none" stroke="black" d="M390.31,-34C409.38,-34 433.85,-34 456.49,-34"/>
<polygon fill="black" stroke="black" points="456.26,-37.5 466.26,-34 456.26,-30.5 456.26,-37.5"/>
</g>
<!-- save_embed&#45;&gt;end -->
<g id="edge24" class="edge">
<title>save_embed&#45;&gt;end</title>
<path fill="none" stroke="black" d="M576.08,-38.48C660.42,-48.19 827.74,-78.05 934.28,-167 956.41,-185.48 970.55,-215.87 978.43,-237.72"/>
<polygon fill="black" stroke="black" points="975.08,-238.75 981.6,-247.11 981.72,-236.52 975.08,-238.75"/>
</g>
<!-- save_zeroshot -->
<g id="node18" class="node">
<title>save_zeroshot</title>
<ellipse fill="none" stroke="black" cx="522.75" cy="-463" rx="60.39" ry="18"/>
<text text-anchor="middle" x="522.75" y="-459.3" font-family="Times,serif" font-size="14.00">save_zeroshot</text>
</g>
<!-- zs_bbc&#45;&gt;save_zeroshot -->
<g id="edge18" class="edge">
<title>zs_bbc&#45;&gt;save_zeroshot</title>
<path fill="none" stroke="black" d="M391.11,-466.16C408.45,-465.74 430.09,-465.22 450.74,-464.72"/>
<polygon fill="black" stroke="black" points="450.65,-468.22 460.57,-464.48 450.49,-461.22 450.65,-468.22"/>
</g>
<!-- save_zeroshot&#45;&gt;end -->
<g id="edge25" class="edge">
<title>save_zeroshot&#45;&gt;end</title>
<path fill="none" stroke="black" d="M578.73,-470.28C664.51,-478.46 831.05,-481.22 934.28,-398 966.52,-372 978.85,-323.39 983.53,-292.42"/>
<polygon fill="black" stroke="black" points="986.99,-292.98 984.83,-282.61 980.05,-292.06 986.99,-292.98"/>
</g>
<!-- save_ner -->
<g id="node20" class="node">
<title>save_ner</title>
<ellipse fill="none" stroke="black" cx="522.75" cy="-117" rx="42.49" ry="18"/>
<text text-anchor="middle" x="522.75" y="-113.3" font-family="Times,serif" font-size="14.00">save_ner</text>
</g>
<!-- ner&#45;&gt;save_ner -->
<g id="edge20" class="edge">
<title>ner&#45;&gt;save_ner</title>
<path fill="none" stroke="black" d="M382.65,-117C405.62,-117 439.71,-117 468.4,-117"/>
<polygon fill="black" stroke="black" points="468.4,-120.5 478.4,-117 468.4,-113.5 468.4,-120.5"/>
</g>
<!-- save_ner&#45;&gt;end -->
<g id="edge26" class="edge">
<title>save_ner&#45;&gt;end</title>
<path fill="none" stroke="black" d="M562.76,-123.56C637.36,-137.01 804.38,-171.45 934.28,-230 944.43,-234.58 954.86,-240.99 963.7,-247.01"/>
<polygon fill="black" stroke="black" points="961.48,-249.73 971.66,-252.65 965.52,-244.01 961.48,-249.73"/>
</g>
</g>
</svg>
