<?xml version="1.0" encoding="UTF-8" standalone="no"?>
<!DOCTYPE svg PUBLIC "-//W3C//DTD SVG 1.1//EN"
 "http://www.w3.org/Graphics/SVG/1.1/DTD/svg11.dtd">
<!-- Generated by graphviz version 7.0.6 (20230106.0513)
 -->
<!-- Pages: 1 -->
<svg width="257pt" height="44pt"
 viewBox="0.00 0.00 256.89 44.00" xmlns="http://www.w3.org/2000/svg" xmlns:xlink="http://www.w3.org/1999/xlink">
<g id="graph0" class="graph" transform="scale(1 1) rotate(0) translate(4 40)">
<polygon fill="white" stroke="none" points="-4,4 -4,-40 252.89,-40 252.89,4 -4,4"/>
<!-- load -->
<g id="node1" class="node">
<title>load</title>
<ellipse fill="none" stroke="black" cx="27" cy="-18" rx="27" ry="18"/>
<text text-anchor="middle" x="27" y="-14.3" font-family="Times,serif" font-size="14.00">load</text>
</g>
<!-- embed -->
<g id="node2" class="node">
<title>embed</title>
<ellipse fill="none" stroke="black" cx="124.45" cy="-18" rx="34.39" ry="18"/>
<text text-anchor="middle" x="124.45" y="-14.3" font-family="Times,serif" font-size="14.00">embed</text>
</g>
<!-- load&#45;&gt;embed -->
<g id="edge1" class="edge">
<title>load&#45;&gt;embed</title>
<path fill="none" stroke="black" d="M54.33,-18C61.76,-18 70.06,-18 78.25,-18"/>
<polygon fill="black" stroke="black" points="78.16,-21.5 88.16,-18 78.16,-14.5 78.16,-21.5"/>
</g>
<!-- save -->
<g id="node3" class="node">
<title>save</title>
<ellipse fill="none" stroke="black" cx="221.89" cy="-18" rx="27" ry="18"/>
<text text-anchor="middle" x="221.89" y="-14.3" font-family="Times,serif" font-size="14.00">save</text>
</g>
<!-- embed&#45;&gt;save -->
<g id="edge2" class="edge">
<title>embed&#45;&gt;save</title>
<path fill="none" stroke="black" d="M159.1,-18C166.89,-18 175.23,-18 183.18,-18"/>
<polygon fill="black" stroke="black" points="182.92,-21.5 192.92,-18 182.92,-14.5 182.92,-21.5"/>
</g>
</g>
</svg>
