<?xml version="1.0" encoding="UTF-8" standalone="no"?>
<!DOCTYPE svg PUBLIC "-//W3C//DTD SVG 1.1//EN"
 "http://www.w3.org/Graphics/SVG/1.1/DTD/svg11.dtd">
<!-- Generated by graphviz version 7.0.6 (20230106.0513)
 -->
<!-- Pages: 1 -->
<svg width="366pt" height="44pt"
 viewBox="0.00 0.00 365.97 44.00" xmlns="http://www.w3.org/2000/svg" xmlns:xlink="http://www.w3.org/1999/xlink">
<g id="graph0" class="graph" transform="scale(1 1) rotate(0) translate(4 40)">
<polygon fill="white" stroke="none" points="-4,4 -4,-40 361.97,-40 361.97,4 -4,4"/>
<!-- load_embed -->
<g id="node1" class="node">
<title>load_embed</title>
<ellipse fill="none" stroke="black" cx="53.95" cy="-18" rx="53.89" ry="18"/>
<text text-anchor="middle" x="53.95" y="-14.3" font-family="Times,serif" font-size="14.00">load_embed</text>
</g>
<!-- embed -->
<g id="node2" class="node">
<title>embed</title>
<ellipse fill="none" stroke="black" cx="178.34" cy="-18" rx="34.39" ry="18"/>
<text text-anchor="middle" x="178.34" y="-14.3" font-family="Times,serif" font-size="14.00">embed</text>
</g>
<!-- load_embed&#45;&gt;embed -->
<g id="edge1" class="edge">
<title>load_embed&#45;&gt;embed</title>
<path fill="none" stroke="black" d="M108.27,-18C116.23,-18 124.37,-18 132.13,-18"/>
<polygon fill="black" stroke="black" points="132.05,-21.5 142.05,-18 132.05,-14.5 132.05,-21.5"/>
</g>
<!-- save_embed -->
<g id="node3" class="node">
<title>save_embed</title>
<ellipse fill="none" stroke="black" cx="303.38" cy="-18" rx="54.69" ry="18"/>
<text text-anchor="middle" x="303.38" y="-14.3" font-family="Times,serif" font-size="14.00">save_embed</text>
</g>
<!-- embed&#45;&gt;save_embed -->
<g id="edge2" class="edge">
<title>embed&#45;&gt;save_embed</title>
<path fill="none" stroke="black" d="M212.96,-18C220.49,-18 228.73,-18 237.07,-18"/>
<polygon fill="black" stroke="black" points="236.92,-21.5 246.92,-18 236.92,-14.5 236.92,-21.5"/>
</g>
</g>
</svg>
