<?xml version="1.0" encoding="UTF-8" standalone="no"?>
<!DOCTYPE svg PUBLIC "-//W3C//DTD SVG 1.1//EN"
 "http://www.w3.org/Graphics/SVG/1.1/DTD/svg11.dtd">
<!-- Generated by graphviz version 7.0.6 (20230106.0513)
 -->
<!-- Pages: 1 -->
<svg width="302pt" height="44pt"
 viewBox="0.00 0.00 301.69 44.00" xmlns="http://www.w3.org/2000/svg" xmlns:xlink="http://www.w3.org/1999/xlink">
<g id="graph0" class="graph" transform="scale(1 1) rotate(0) translate(4 40)">
<polygon fill="white" stroke="none" points="-4,4 -4,-40 297.69,-40 297.69,4 -4,4"/>
<!-- load_ner -->
<g id="node1" class="node">
<title>load_ner</title>
<ellipse fill="none" stroke="black" cx="41.6" cy="-18" rx="41.69" ry="18"/>
<text text-anchor="middle" x="41.6" y="-14.3" font-family="Times,serif" font-size="14.00">load_ner</text>
</g>
<!-- ner -->
<g id="node2" class="node">
<title>ner</title>
<ellipse fill="none" stroke="black" cx="146.19" cy="-18" rx="27" ry="18"/>
<text text-anchor="middle" x="146.19" y="-14.3" font-family="Times,serif" font-size="14.00">ner</text>
</g>
<!-- load_ner&#45;&gt;ner -->
<g id="edge1" class="edge">
<title>load_ner&#45;&gt;ner</title>
<path fill="none" stroke="black" d="M83.73,-18C91.58,-18 99.76,-18 107.5,-18"/>
<polygon fill="black" stroke="black" points="107.28,-21.5 117.28,-18 107.28,-14.5 107.28,-21.5"/>
</g>
<!-- save_ner -->
<g id="node3" class="node">
<title>save_ner</title>
<ellipse fill="none" stroke="black" cx="251.44" cy="-18" rx="42.49" ry="18"/>
<text text-anchor="middle" x="251.44" y="-14.3" font-family="Times,serif" font-size="14.00">save_ner</text>
</g>
<!-- ner&#45;&gt;save_ner -->
<g id="edge2" class="edge">
<title>ner&#45;&gt;save_ner</title>
<path fill="none" stroke="black" d="M173.51,-18C180.74,-18 188.85,-18 197.02,-18"/>
<polygon fill="black" stroke="black" points="197,-21.5 207,-18 197,-14.5 197,-21.5"/>
</g>
</g>
</svg>
