<?xml version="1.0" encoding="UTF-8" standalone="no"?>
<!DOCTYPE svg PUBLIC "-//W3C//DTD SVG 1.1//EN"
 "http://www.w3.org/Graphics/SVG/1.1/DTD/svg11.dtd">
<!-- Generated by graphviz version 7.0.6 (20230106.0513)
 -->
<!-- Pages: 1 -->
<svg width="391pt" height="98pt"
 viewBox="0.00 0.00 390.67 98.00" xmlns="http://www.w3.org/2000/svg" xmlns:xlink="http://www.w3.org/1999/xlink">
<g id="graph0" class="graph" transform="scale(1 1) rotate(0) translate(4 94)">
<polygon fill="white" stroke="none" points="-4,4 -4,-94 386.67,-94 386.67,4 -4,4"/>
<!-- load_zeroshot -->
<g id="node1" class="node">
<title>load_zeroshot</title>
<ellipse fill="none" stroke="black" cx="59.79" cy="-72" rx="59.59" ry="18"/>
<text text-anchor="middle" x="59.79" y="-68.3" font-family="Times,serif" font-size="14.00">load_zeroshot</text>
</g>
<!-- zs_bbc -->
<g id="node2" class="node">
<title>zs_bbc</title>
<ellipse fill="none" stroke="black" cx="190.69" cy="-45" rx="35.19" ry="18"/>
<text text-anchor="middle" x="190.69" y="-41.3" font-family="Times,serif" font-size="14.00">zs_bbc</text>
</g>
<!-- load_zeroshot&#45;&gt;zs_bbc -->
<g id="edge1" class="edge">
<title>load_zeroshot&#45;&gt;zs_bbc</title>
<path fill="none" stroke="black" d="M109.52,-61.79C121.73,-59.23 134.74,-56.51 146.65,-54.01"/>
<polygon fill="black" stroke="black" points="147.12,-57.49 156.19,-52.02 145.69,-50.64 147.12,-57.49"/>
</g>
<!-- save_zeroshot -->
<g id="node4" class="node">
<title>save_zeroshot</title>
<ellipse fill="none" stroke="black" cx="322.23" cy="-45" rx="60.39" ry="18"/>
<text text-anchor="middle" x="322.23" y="-41.3" font-family="Times,serif" font-size="14.00">save_zeroshot</text>
</g>
<!-- zs_bbc&#45;&gt;save_zeroshot -->
<g id="edge3" class="edge">
<title>zs_bbc&#45;&gt;save_zeroshot</title>
<path fill="none" stroke="black" d="M226.06,-45C233.53,-45 241.7,-45 250.02,-45"/>
<polygon fill="black" stroke="black" points="249.88,-48.5 259.88,-45 249.88,-41.5 249.88,-48.5"/>
</g>
<!-- load_taxo -->
<g id="node3" class="node">
<title>load_taxo</title>
<ellipse fill="none" stroke="black" cx="59.79" cy="-18" rx="45.49" ry="18"/>
<text text-anchor="middle" x="59.79" y="-14.3" font-family="Times,serif" font-size="14.00">load_taxo</text>
</g>
<!-- load_taxo&#45;&gt;zs_bbc -->
<g id="edge2" class="edge">
<title>load_taxo&#45;&gt;zs_bbc</title>
<path fill="none" stroke="black" d="M100.52,-26.32C115.14,-29.38 131.75,-32.86 146.65,-35.98"/>
<polygon fill="black" stroke="black" points="145.66,-39.35 156.16,-37.98 147.09,-32.5 145.66,-39.35"/>
</g>
</g>
</svg>
